<mxfile host="app.diagrams.net" modified="2023-06-09T22:53:28.359Z" agent="Mozilla/5.0 (Windows NT 10.0; Win64; x64) AppleWebKit/537.36 (KHTML, like Gecko) Chrome/114.0.0.0 Safari/537.36" etag="2pZeZ3_Bie0RuCH9L-_x" version="21.3.8" type="device">
  <diagram id="R2lEEEUBdFMjLlhIrx00" name="Page-1">
    <mxGraphModel dx="2030" dy="1743" grid="1" gridSize="10" guides="1" tooltips="1" connect="1" arrows="1" fold="1" page="1" pageScale="1" pageWidth="850" pageHeight="1100" math="0" shadow="0" extFonts="Permanent Marker^https://fonts.googleapis.com/css?family=Permanent+Marker">
      <root>
        <mxCell id="0" />
        <mxCell id="1" parent="0" />
        <mxCell id="C3DzCFpYoBOEMf917RgJ-1" value="" style="rounded=1;whiteSpace=wrap;html=1;" vertex="1" parent="1">
          <mxGeometry x="365" y="440" width="120" height="60" as="geometry" />
        </mxCell>
        <mxCell id="C3DzCFpYoBOEMf917RgJ-2" value="Utente" style="text;html=1;strokeColor=none;fillColor=none;align=center;verticalAlign=middle;whiteSpace=wrap;rounded=0;fontStyle=1;fontSize=26;" vertex="1" parent="1">
          <mxGeometry x="395" y="455" width="60" height="30" as="geometry" />
        </mxCell>
        <mxCell id="C3DzCFpYoBOEMf917RgJ-18" style="edgeStyle=orthogonalEdgeStyle;rounded=1;orthogonalLoop=1;jettySize=auto;html=1;entryX=0.5;entryY=1;entryDx=0;entryDy=0;endArrow=block;endFill=1;endSize=11;strokeWidth=2;" edge="1" parent="1" source="C3DzCFpYoBOEMf917RgJ-3" target="C3DzCFpYoBOEMf917RgJ-1">
          <mxGeometry relative="1" as="geometry">
            <Array as="points">
              <mxPoint x="590" y="560" />
              <mxPoint x="425" y="560" />
            </Array>
          </mxGeometry>
        </mxCell>
        <mxCell id="C3DzCFpYoBOEMf917RgJ-41" style="edgeStyle=orthogonalEdgeStyle;rounded=0;orthogonalLoop=1;jettySize=auto;html=1;entryX=0;entryY=0.5;entryDx=0;entryDy=0;endArrow=none;endFill=0;strokeWidth=2;" edge="1" parent="1" source="C3DzCFpYoBOEMf917RgJ-3" target="C3DzCFpYoBOEMf917RgJ-39">
          <mxGeometry relative="1" as="geometry" />
        </mxCell>
        <mxCell id="C3DzCFpYoBOEMf917RgJ-3" value="" style="rounded=1;whiteSpace=wrap;html=1;" vertex="1" parent="1">
          <mxGeometry x="530" y="600" width="120" height="60" as="geometry" />
        </mxCell>
        <mxCell id="C3DzCFpYoBOEMf917RgJ-4" value="Docente" style="text;html=1;strokeColor=none;fillColor=none;align=center;verticalAlign=middle;whiteSpace=wrap;rounded=0;fontStyle=1;fontSize=26;" vertex="1" parent="1">
          <mxGeometry x="560" y="615" width="60" height="30" as="geometry" />
        </mxCell>
        <mxCell id="C3DzCFpYoBOEMf917RgJ-5" value="" style="endArrow=oval;html=1;rounded=0;exitX=0.25;exitY=0;exitDx=0;exitDy=0;startArrow=none;startFill=0;endFill=1;strokeWidth=3;endSize=10;" edge="1" parent="1" source="C3DzCFpYoBOEMf917RgJ-1">
          <mxGeometry width="50" height="50" relative="1" as="geometry">
            <mxPoint x="430" y="430" as="sourcePoint" />
            <mxPoint x="395" y="370" as="targetPoint" />
          </mxGeometry>
        </mxCell>
        <mxCell id="C3DzCFpYoBOEMf917RgJ-6" value="ID" style="text;html=1;strokeColor=none;fillColor=none;align=center;verticalAlign=middle;whiteSpace=wrap;rounded=0;strokeWidth=3;fontSize=18;" vertex="1" parent="1">
          <mxGeometry x="365" y="330" width="60" height="30" as="geometry" />
        </mxCell>
        <mxCell id="C3DzCFpYoBOEMf917RgJ-7" value="" style="endArrow=oval;html=1;rounded=1;exitX=0.25;exitY=0;exitDx=0;exitDy=0;startArrow=none;startFill=0;endFill=0;strokeWidth=3;endSize=10;" edge="1" parent="1">
          <mxGeometry width="50" height="50" relative="1" as="geometry">
            <mxPoint x="440" y="440" as="sourcePoint" />
            <mxPoint x="470" y="370" as="targetPoint" />
            <Array as="points">
              <mxPoint x="440" y="400" />
              <mxPoint x="470" y="400" />
            </Array>
          </mxGeometry>
        </mxCell>
        <mxCell id="C3DzCFpYoBOEMf917RgJ-8" value="&lt;span&gt;Cognome&lt;/span&gt;" style="text;html=1;strokeColor=none;fillColor=none;align=center;verticalAlign=middle;whiteSpace=wrap;rounded=0;strokeWidth=3;fontSize=18;fontColor=#FFFFFF;fontStyle=0" vertex="1" parent="1">
          <mxGeometry x="440" y="330" width="60" height="30" as="geometry" />
        </mxCell>
        <mxCell id="C3DzCFpYoBOEMf917RgJ-9" value="" style="endArrow=oval;html=1;rounded=1;startArrow=none;startFill=0;endFill=0;strokeWidth=3;endSize=10;exitX=0.917;exitY=-0.017;exitDx=0;exitDy=0;exitPerimeter=0;" edge="1" parent="1" source="C3DzCFpYoBOEMf917RgJ-1">
          <mxGeometry width="50" height="50" relative="1" as="geometry">
            <mxPoint x="480" y="450" as="sourcePoint" />
            <mxPoint x="550" y="390" as="targetPoint" />
            <Array as="points">
              <mxPoint x="510" y="410" />
              <mxPoint x="540" y="410" />
            </Array>
          </mxGeometry>
        </mxCell>
        <mxCell id="C3DzCFpYoBOEMf917RgJ-10" value="Nome" style="text;html=1;strokeColor=none;fillColor=none;align=center;verticalAlign=middle;whiteSpace=wrap;rounded=0;strokeWidth=3;fontSize=18;" vertex="1" parent="1">
          <mxGeometry x="520" y="350" width="60" height="30" as="geometry" />
        </mxCell>
        <mxCell id="C3DzCFpYoBOEMf917RgJ-11" value="" style="endArrow=oval;html=1;rounded=1;exitX=0.117;exitY=-0.017;exitDx=0;exitDy=0;startArrow=none;startFill=0;endFill=0;strokeWidth=3;endSize=10;exitPerimeter=0;" edge="1" parent="1" source="C3DzCFpYoBOEMf917RgJ-1">
          <mxGeometry width="50" height="50" relative="1" as="geometry">
            <mxPoint x="364" y="440" as="sourcePoint" />
            <mxPoint x="330" y="380" as="targetPoint" />
            <Array as="points">
              <mxPoint x="379" y="400" />
              <mxPoint x="330" y="400" />
            </Array>
          </mxGeometry>
        </mxCell>
        <mxCell id="C3DzCFpYoBOEMf917RgJ-12" value="Email" style="text;html=1;strokeColor=none;fillColor=none;align=center;verticalAlign=middle;whiteSpace=wrap;rounded=0;strokeWidth=3;fontSize=18;" vertex="1" parent="1">
          <mxGeometry x="300" y="340" width="60" height="30" as="geometry" />
        </mxCell>
        <mxCell id="C3DzCFpYoBOEMf917RgJ-14" value="" style="endArrow=oval;html=1;rounded=0;exitX=1;exitY=0.25;exitDx=0;exitDy=0;startArrow=none;startFill=0;endFill=0;strokeWidth=3;endSize=10;" edge="1" parent="1" source="C3DzCFpYoBOEMf917RgJ-1">
          <mxGeometry width="50" height="50" relative="1" as="geometry">
            <mxPoint x="620" y="480" as="sourcePoint" />
            <mxPoint x="570" y="455" as="targetPoint" />
          </mxGeometry>
        </mxCell>
        <mxCell id="C3DzCFpYoBOEMf917RgJ-15" value="Username" style="text;html=1;strokeColor=none;fillColor=none;align=center;verticalAlign=middle;whiteSpace=wrap;rounded=0;strokeWidth=3;fontSize=18;fontStyle=2;fontColor=#33FFFF;" vertex="1" parent="1">
          <mxGeometry x="600" y="430" width="60" height="30" as="geometry" />
        </mxCell>
        <mxCell id="C3DzCFpYoBOEMf917RgJ-16" value="" style="endArrow=oval;html=1;rounded=0;exitX=1;exitY=0.25;exitDx=0;exitDy=0;startArrow=none;startFill=0;endFill=0;strokeWidth=3;endSize=10;" edge="1" parent="1">
          <mxGeometry width="50" height="50" relative="1" as="geometry">
            <mxPoint x="485" y="485" as="sourcePoint" />
            <mxPoint x="570" y="485" as="targetPoint" />
          </mxGeometry>
        </mxCell>
        <mxCell id="C3DzCFpYoBOEMf917RgJ-17" value="Password" style="text;html=1;strokeColor=none;fillColor=none;align=center;verticalAlign=middle;whiteSpace=wrap;rounded=0;strokeWidth=3;fontSize=18;" vertex="1" parent="1">
          <mxGeometry x="600" y="470" width="60" height="30" as="geometry" />
        </mxCell>
        <mxCell id="C3DzCFpYoBOEMf917RgJ-19" value="(t,e)" style="text;html=1;strokeColor=none;fillColor=none;align=center;verticalAlign=middle;whiteSpace=wrap;rounded=0;strokeWidth=3;fontSize=18;" vertex="1" parent="1">
          <mxGeometry x="430" y="510" width="60" height="30" as="geometry" />
        </mxCell>
        <mxCell id="C3DzCFpYoBOEMf917RgJ-22" style="edgeStyle=orthogonalEdgeStyle;rounded=1;orthogonalLoop=1;jettySize=auto;html=1;entryX=0.5;entryY=1;entryDx=0;entryDy=0;strokeWidth=2;" edge="1" parent="1" source="C3DzCFpYoBOEMf917RgJ-20" target="C3DzCFpYoBOEMf917RgJ-1">
          <mxGeometry relative="1" as="geometry">
            <Array as="points">
              <mxPoint x="210" y="560" />
              <mxPoint x="425" y="560" />
            </Array>
          </mxGeometry>
        </mxCell>
        <mxCell id="C3DzCFpYoBOEMf917RgJ-27" style="edgeStyle=orthogonalEdgeStyle;rounded=1;orthogonalLoop=1;jettySize=auto;html=1;entryX=1;entryY=0.5;entryDx=0;entryDy=0;endSize=11;endArrow=none;endFill=0;strokeWidth=2;" edge="1" parent="1" source="C3DzCFpYoBOEMf917RgJ-20" target="C3DzCFpYoBOEMf917RgJ-25">
          <mxGeometry relative="1" as="geometry">
            <Array as="points" />
          </mxGeometry>
        </mxCell>
        <mxCell id="C3DzCFpYoBOEMf917RgJ-53" style="edgeStyle=orthogonalEdgeStyle;rounded=1;orthogonalLoop=1;jettySize=auto;html=1;entryX=0;entryY=0.5;entryDx=0;entryDy=0;strokeWidth=2;endArrow=none;endFill=0;" edge="1" parent="1" source="C3DzCFpYoBOEMf917RgJ-20" target="C3DzCFpYoBOEMf917RgJ-51">
          <mxGeometry relative="1" as="geometry">
            <Array as="points">
              <mxPoint x="460" y="630" />
              <mxPoint x="460" y="835" />
            </Array>
          </mxGeometry>
        </mxCell>
        <mxCell id="C3DzCFpYoBOEMf917RgJ-73" style="edgeStyle=orthogonalEdgeStyle;rounded=1;orthogonalLoop=1;jettySize=auto;html=1;exitX=1;exitY=0.75;exitDx=0;exitDy=0;entryX=0;entryY=0.5;entryDx=0;entryDy=0;strokeWidth=2;endArrow=none;endFill=0;" edge="1" parent="1" source="C3DzCFpYoBOEMf917RgJ-20" target="C3DzCFpYoBOEMf917RgJ-71">
          <mxGeometry relative="1" as="geometry">
            <Array as="points">
              <mxPoint x="430" y="645" />
              <mxPoint x="430" y="975" />
            </Array>
          </mxGeometry>
        </mxCell>
        <mxCell id="C3DzCFpYoBOEMf917RgJ-85" style="edgeStyle=orthogonalEdgeStyle;rounded=1;orthogonalLoop=1;jettySize=auto;html=1;exitX=0.25;exitY=0;exitDx=0;exitDy=0;entryX=0.5;entryY=1;entryDx=0;entryDy=0;strokeWidth=2;endArrow=none;endFill=0;" edge="1" parent="1" source="C3DzCFpYoBOEMf917RgJ-20" target="C3DzCFpYoBOEMf917RgJ-83">
          <mxGeometry relative="1" as="geometry" />
        </mxCell>
        <mxCell id="C3DzCFpYoBOEMf917RgJ-20" value="" style="rounded=1;whiteSpace=wrap;html=1;" vertex="1" parent="1">
          <mxGeometry x="150" y="600" width="120" height="60" as="geometry" />
        </mxCell>
        <mxCell id="C3DzCFpYoBOEMf917RgJ-21" value="Studente" style="text;html=1;strokeColor=none;fillColor=none;align=center;verticalAlign=middle;whiteSpace=wrap;rounded=0;fontStyle=1;fontSize=26;" vertex="1" parent="1">
          <mxGeometry x="180" y="615" width="60" height="30" as="geometry" />
        </mxCell>
        <mxCell id="C3DzCFpYoBOEMf917RgJ-23" value="" style="rounded=1;whiteSpace=wrap;html=1;" vertex="1" parent="1">
          <mxGeometry x="110" y="740" width="210" height="60" as="geometry" />
        </mxCell>
        <mxCell id="C3DzCFpYoBOEMf917RgJ-24" value="Corso di laurea" style="text;html=1;strokeColor=none;fillColor=none;align=center;verticalAlign=middle;whiteSpace=wrap;rounded=0;fontStyle=1;fontSize=26;" vertex="1" parent="1">
          <mxGeometry x="115" y="755" width="200" height="30" as="geometry" />
        </mxCell>
        <mxCell id="C3DzCFpYoBOEMf917RgJ-28" style="edgeStyle=orthogonalEdgeStyle;rounded=1;orthogonalLoop=1;jettySize=auto;html=1;entryX=0;entryY=0.5;entryDx=0;entryDy=0;endSize=11;endArrow=none;endFill=0;strokeWidth=2;" edge="1" parent="1" source="C3DzCFpYoBOEMf917RgJ-25" target="C3DzCFpYoBOEMf917RgJ-23">
          <mxGeometry relative="1" as="geometry">
            <mxPoint x="60" y="770" as="targetPoint" />
            <Array as="points">
              <mxPoint x="20" y="770" />
            </Array>
          </mxGeometry>
        </mxCell>
        <mxCell id="C3DzCFpYoBOEMf917RgJ-25" value="" style="rhombus;whiteSpace=wrap;html=1;" vertex="1" parent="1">
          <mxGeometry x="-30" y="580" width="100" height="100" as="geometry" />
        </mxCell>
        <mxCell id="C3DzCFpYoBOEMf917RgJ-26" value="segue" style="text;html=1;strokeColor=none;fillColor=none;align=center;verticalAlign=middle;whiteSpace=wrap;rounded=0;fontStyle=1;fontSize=18;" vertex="1" parent="1">
          <mxGeometry x="-10" y="615" width="60" height="30" as="geometry" />
        </mxCell>
        <mxCell id="C3DzCFpYoBOEMf917RgJ-29" value="(1:1)" style="text;html=1;strokeColor=none;fillColor=none;align=center;verticalAlign=middle;whiteSpace=wrap;rounded=0;strokeWidth=3;fontSize=18;" vertex="1" parent="1">
          <mxGeometry x="90" y="590" width="60" height="30" as="geometry" />
        </mxCell>
        <mxCell id="C3DzCFpYoBOEMf917RgJ-30" value="(0:N)" style="text;html=1;strokeColor=none;fillColor=none;align=center;verticalAlign=middle;whiteSpace=wrap;rounded=0;strokeWidth=3;fontSize=18;" vertex="1" parent="1">
          <mxGeometry x="30" y="680" width="60" height="30" as="geometry" />
        </mxCell>
        <mxCell id="C3DzCFpYoBOEMf917RgJ-31" value="" style="endArrow=oval;html=1;rounded=0;exitX=0.5;exitY=1;exitDx=0;exitDy=0;startArrow=none;startFill=0;endFill=1;strokeWidth=3;endSize=10;" edge="1" parent="1" source="C3DzCFpYoBOEMf917RgJ-23">
          <mxGeometry width="50" height="50" relative="1" as="geometry">
            <mxPoint x="210" y="950" as="sourcePoint" />
            <mxPoint x="215" y="880" as="targetPoint" />
          </mxGeometry>
        </mxCell>
        <mxCell id="C3DzCFpYoBOEMf917RgJ-32" value="ID" style="text;html=1;strokeColor=none;fillColor=none;align=center;verticalAlign=middle;whiteSpace=wrap;rounded=0;strokeWidth=3;fontSize=18;" vertex="1" parent="1">
          <mxGeometry x="185" y="890" width="60" height="30" as="geometry" />
        </mxCell>
        <mxCell id="C3DzCFpYoBOEMf917RgJ-33" value="" style="endArrow=oval;html=1;rounded=1;exitX=0.25;exitY=1;exitDx=0;exitDy=0;startArrow=none;startFill=0;endFill=0;strokeWidth=3;endSize=10;" edge="1" parent="1" source="C3DzCFpYoBOEMf917RgJ-23">
          <mxGeometry width="50" height="50" relative="1" as="geometry">
            <mxPoint x="140" y="940" as="sourcePoint" />
            <mxPoint x="130" y="900" as="targetPoint" />
            <Array as="points">
              <mxPoint x="160" y="870" />
              <mxPoint x="130" y="870" />
            </Array>
          </mxGeometry>
        </mxCell>
        <mxCell id="C3DzCFpYoBOEMf917RgJ-34" value="&lt;span&gt;Nome&lt;/span&gt;" style="text;html=1;strokeColor=none;fillColor=none;align=center;verticalAlign=middle;whiteSpace=wrap;rounded=0;strokeWidth=3;fontSize=18;fontStyle=2;fontColor=#33FFFF;" vertex="1" parent="1">
          <mxGeometry x="100" y="910" width="60" height="30" as="geometry" />
        </mxCell>
        <mxCell id="C3DzCFpYoBOEMf917RgJ-35" value="" style="endArrow=oval;html=1;rounded=1;exitX=0.75;exitY=1;exitDx=0;exitDy=0;startArrow=none;startFill=0;endFill=0;strokeWidth=3;endSize=10;" edge="1" parent="1" source="C3DzCFpYoBOEMf917RgJ-23">
          <mxGeometry width="50" height="50" relative="1" as="geometry">
            <mxPoint x="287.5" y="870" as="sourcePoint" />
            <mxPoint x="310" y="890" as="targetPoint" />
            <Array as="points">
              <mxPoint x="268" y="840" />
              <mxPoint x="310" y="840" />
            </Array>
          </mxGeometry>
        </mxCell>
        <mxCell id="C3DzCFpYoBOEMf917RgJ-66" style="edgeStyle=orthogonalEdgeStyle;rounded=1;orthogonalLoop=1;jettySize=auto;html=1;entryX=0.5;entryY=1;entryDx=0;entryDy=0;strokeWidth=2;endArrow=none;endFill=0;" edge="1" parent="1" source="C3DzCFpYoBOEMf917RgJ-37" target="C3DzCFpYoBOEMf917RgJ-62">
          <mxGeometry relative="1" as="geometry" />
        </mxCell>
        <mxCell id="C3DzCFpYoBOEMf917RgJ-37" value="" style="rounded=1;whiteSpace=wrap;html=1;" vertex="1" parent="1">
          <mxGeometry x="1000" y="600" width="120" height="60" as="geometry" />
        </mxCell>
        <mxCell id="C3DzCFpYoBOEMf917RgJ-38" value="Corso" style="text;html=1;strokeColor=none;fillColor=none;align=center;verticalAlign=middle;whiteSpace=wrap;rounded=0;fontStyle=1;fontSize=26;" vertex="1" parent="1">
          <mxGeometry x="1030" y="615" width="60" height="30" as="geometry" />
        </mxCell>
        <mxCell id="C3DzCFpYoBOEMf917RgJ-42" style="edgeStyle=orthogonalEdgeStyle;rounded=0;orthogonalLoop=1;jettySize=auto;html=1;entryX=0;entryY=0.5;entryDx=0;entryDy=0;endArrow=none;endFill=0;strokeWidth=2;" edge="1" parent="1" source="C3DzCFpYoBOEMf917RgJ-39" target="C3DzCFpYoBOEMf917RgJ-37">
          <mxGeometry relative="1" as="geometry" />
        </mxCell>
        <mxCell id="C3DzCFpYoBOEMf917RgJ-39" value="" style="rhombus;whiteSpace=wrap;html=1;" vertex="1" parent="1">
          <mxGeometry x="790" y="580" width="100" height="100" as="geometry" />
        </mxCell>
        <mxCell id="C3DzCFpYoBOEMf917RgJ-40" value="Insegna" style="text;html=1;strokeColor=none;fillColor=none;align=center;verticalAlign=middle;whiteSpace=wrap;rounded=0;fontStyle=1;fontSize=18;" vertex="1" parent="1">
          <mxGeometry x="810" y="615" width="60" height="30" as="geometry" />
        </mxCell>
        <mxCell id="C3DzCFpYoBOEMf917RgJ-43" value="(0:N)" style="text;html=1;strokeColor=none;fillColor=none;align=center;verticalAlign=middle;whiteSpace=wrap;rounded=0;strokeWidth=3;fontSize=18;" vertex="1" parent="1">
          <mxGeometry x="660" y="590" width="60" height="30" as="geometry" />
        </mxCell>
        <mxCell id="C3DzCFpYoBOEMf917RgJ-44" value="(1:1)" style="text;html=1;strokeColor=none;fillColor=none;align=center;verticalAlign=middle;whiteSpace=wrap;rounded=0;strokeWidth=3;fontSize=18;" vertex="1" parent="1">
          <mxGeometry x="940" y="590" width="60" height="30" as="geometry" />
        </mxCell>
        <mxCell id="C3DzCFpYoBOEMf917RgJ-45" value="" style="endArrow=oval;html=1;rounded=1;exitX=0.25;exitY=0;exitDx=0;exitDy=0;startArrow=none;startFill=0;endFill=1;strokeWidth=3;endSize=10;" edge="1" parent="1">
          <mxGeometry width="50" height="50" relative="1" as="geometry">
            <mxPoint x="1030" y="600" as="sourcePoint" />
            <mxPoint x="1000" y="530" as="targetPoint" />
            <Array as="points">
              <mxPoint x="1030" y="560" />
              <mxPoint x="1000" y="560" />
            </Array>
          </mxGeometry>
        </mxCell>
        <mxCell id="C3DzCFpYoBOEMf917RgJ-46" value="ID" style="text;html=1;strokeColor=none;fillColor=none;align=center;verticalAlign=middle;whiteSpace=wrap;rounded=0;strokeWidth=3;fontSize=18;" vertex="1" parent="1">
          <mxGeometry x="970" y="490" width="60" height="30" as="geometry" />
        </mxCell>
        <mxCell id="C3DzCFpYoBOEMf917RgJ-47" value="" style="endArrow=oval;html=1;rounded=1;exitX=0.25;exitY=1;exitDx=0;exitDy=0;startArrow=none;startFill=0;endFill=0;strokeWidth=3;endSize=10;" edge="1" parent="1">
          <mxGeometry width="50" height="50" relative="1" as="geometry">
            <mxPoint x="1030" y="660" as="sourcePoint" />
            <mxPoint x="997" y="760" as="targetPoint" />
            <Array as="points">
              <mxPoint x="1030" y="730" />
              <mxPoint x="997" y="730" />
            </Array>
          </mxGeometry>
        </mxCell>
        <mxCell id="C3DzCFpYoBOEMf917RgJ-48" value="&lt;span&gt;Nome&lt;/span&gt;" style="text;html=1;strokeColor=none;fillColor=none;align=center;verticalAlign=middle;whiteSpace=wrap;rounded=0;strokeWidth=3;fontSize=18;fontStyle=2;fontColor=#33FFFF;" vertex="1" parent="1">
          <mxGeometry x="970" y="770" width="60" height="30" as="geometry" />
        </mxCell>
        <mxCell id="C3DzCFpYoBOEMf917RgJ-49" value="" style="endArrow=oval;html=1;rounded=1;exitX=0.75;exitY=1;exitDx=0;exitDy=0;startArrow=none;startFill=0;endFill=0;strokeWidth=3;endSize=10;" edge="1" parent="1">
          <mxGeometry width="50" height="50" relative="1" as="geometry">
            <mxPoint x="1090" y="660" as="sourcePoint" />
            <mxPoint x="1130" y="730" as="targetPoint" />
            <Array as="points">
              <mxPoint x="1090" y="700" />
              <mxPoint x="1130" y="700" />
              <mxPoint x="1130" y="730" />
            </Array>
          </mxGeometry>
        </mxCell>
        <mxCell id="C3DzCFpYoBOEMf917RgJ-50" value="Descrizione &lt;br&gt;&lt;font color=&quot;#ff8000&quot;&gt;{&quot;No description&quot;}&lt;/font&gt;" style="text;html=1;strokeColor=none;fillColor=none;align=center;verticalAlign=middle;whiteSpace=wrap;rounded=0;strokeWidth=3;fontSize=18;" vertex="1" parent="1">
          <mxGeometry x="1040" y="745" width="180" height="30" as="geometry" />
        </mxCell>
        <mxCell id="C3DzCFpYoBOEMf917RgJ-54" style="edgeStyle=orthogonalEdgeStyle;rounded=1;orthogonalLoop=1;jettySize=auto;html=1;entryX=1;entryY=0.5;entryDx=0;entryDy=0;endArrow=none;endFill=0;strokeWidth=2;" edge="1" parent="1" source="C3DzCFpYoBOEMf917RgJ-51" target="C3DzCFpYoBOEMf917RgJ-37">
          <mxGeometry relative="1" as="geometry">
            <Array as="points">
              <mxPoint x="1210" y="835" />
              <mxPoint x="1210" y="630" />
            </Array>
          </mxGeometry>
        </mxCell>
        <mxCell id="C3DzCFpYoBOEMf917RgJ-51" value="" style="rhombus;whiteSpace=wrap;html=1;" vertex="1" parent="1">
          <mxGeometry x="780" y="775" width="120" height="120" as="geometry" />
        </mxCell>
        <mxCell id="C3DzCFpYoBOEMf917RgJ-52" value="Frequenta" style="text;html=1;strokeColor=none;fillColor=none;align=center;verticalAlign=middle;whiteSpace=wrap;rounded=0;fontStyle=1;fontSize=18;" vertex="1" parent="1">
          <mxGeometry x="810" y="820" width="60" height="30" as="geometry" />
        </mxCell>
        <mxCell id="C3DzCFpYoBOEMf917RgJ-57" value="(0:N)" style="text;html=1;strokeColor=none;fillColor=none;align=center;verticalAlign=middle;whiteSpace=wrap;rounded=0;strokeWidth=3;fontSize=18;" vertex="1" parent="1">
          <mxGeometry x="270" y="590" width="60" height="30" as="geometry" />
        </mxCell>
        <mxCell id="C3DzCFpYoBOEMf917RgJ-58" value="(0:N)" style="text;html=1;strokeColor=none;fillColor=none;align=center;verticalAlign=middle;whiteSpace=wrap;rounded=0;strokeWidth=3;fontSize=18;" vertex="1" parent="1">
          <mxGeometry x="1130" y="590" width="60" height="30" as="geometry" />
        </mxCell>
        <mxCell id="C3DzCFpYoBOEMf917RgJ-69" style="edgeStyle=orthogonalEdgeStyle;rounded=1;orthogonalLoop=1;jettySize=auto;html=1;entryX=0.5;entryY=1;entryDx=0;entryDy=0;endArrow=none;endFill=0;strokeWidth=2;" edge="1" parent="1" source="C3DzCFpYoBOEMf917RgJ-62" target="C3DzCFpYoBOEMf917RgJ-67">
          <mxGeometry relative="1" as="geometry" />
        </mxCell>
        <mxCell id="C3DzCFpYoBOEMf917RgJ-62" value="" style="rhombus;whiteSpace=wrap;html=1;" vertex="1" parent="1">
          <mxGeometry x="1000" y="340" width="120" height="120" as="geometry" />
        </mxCell>
        <mxCell id="C3DzCFpYoBOEMf917RgJ-63" value="Possiede" style="text;html=1;strokeColor=none;fillColor=none;align=center;verticalAlign=middle;whiteSpace=wrap;rounded=0;fontStyle=1;fontSize=18;" vertex="1" parent="1">
          <mxGeometry x="1030" y="385" width="60" height="30" as="geometry" />
        </mxCell>
        <mxCell id="C3DzCFpYoBOEMf917RgJ-81" style="edgeStyle=orthogonalEdgeStyle;rounded=1;orthogonalLoop=1;jettySize=auto;html=1;entryX=1;entryY=0.5;entryDx=0;entryDy=0;strokeWidth=2;endArrow=none;endFill=0;" edge="1" parent="1" source="C3DzCFpYoBOEMf917RgJ-67" target="C3DzCFpYoBOEMf917RgJ-79">
          <mxGeometry relative="1" as="geometry" />
        </mxCell>
        <mxCell id="C3DzCFpYoBOEMf917RgJ-67" value="" style="rounded=1;whiteSpace=wrap;html=1;" vertex="1" parent="1">
          <mxGeometry x="1000" y="200" width="120" height="60" as="geometry" />
        </mxCell>
        <mxCell id="C3DzCFpYoBOEMf917RgJ-107" value="" style="rounded=1;whiteSpace=wrap;html=1;" vertex="1" parent="1">
          <mxGeometry x="1005" y="205" width="110" height="50" as="geometry" />
        </mxCell>
        <mxCell id="C3DzCFpYoBOEMf917RgJ-68" value="Appello" style="text;html=1;strokeColor=none;fillColor=none;align=center;verticalAlign=middle;whiteSpace=wrap;rounded=0;fontStyle=1;fontSize=26;" vertex="1" parent="1">
          <mxGeometry x="1030" y="215" width="60" height="30" as="geometry" />
        </mxCell>
        <mxCell id="C3DzCFpYoBOEMf917RgJ-74" style="edgeStyle=orthogonalEdgeStyle;rounded=1;orthogonalLoop=1;jettySize=auto;html=1;entryX=1;entryY=0.5;entryDx=0;entryDy=0;strokeWidth=2;endArrow=none;endFill=0;" edge="1" parent="1" source="C3DzCFpYoBOEMf917RgJ-71" target="C3DzCFpYoBOEMf917RgJ-67">
          <mxGeometry relative="1" as="geometry">
            <Array as="points">
              <mxPoint x="1250" y="975" />
              <mxPoint x="1250" y="230" />
            </Array>
          </mxGeometry>
        </mxCell>
        <mxCell id="C3DzCFpYoBOEMf917RgJ-71" value="" style="rhombus;whiteSpace=wrap;html=1;" vertex="1" parent="1">
          <mxGeometry x="780" y="915" width="120" height="120" as="geometry" />
        </mxCell>
        <mxCell id="C3DzCFpYoBOEMf917RgJ-72" value="Iscritto" style="text;html=1;strokeColor=none;fillColor=none;align=center;verticalAlign=middle;whiteSpace=wrap;rounded=0;fontStyle=1;fontSize=18;" vertex="1" parent="1">
          <mxGeometry x="810" y="960" width="60" height="30" as="geometry" />
        </mxCell>
        <mxCell id="C3DzCFpYoBOEMf917RgJ-86" style="edgeStyle=orthogonalEdgeStyle;rounded=0;orthogonalLoop=1;jettySize=auto;html=1;entryX=1;entryY=0.5;entryDx=0;entryDy=0;strokeWidth=2;endArrow=none;endFill=0;" edge="1" parent="1" source="C3DzCFpYoBOEMf917RgJ-75" target="C3DzCFpYoBOEMf917RgJ-83">
          <mxGeometry relative="1" as="geometry" />
        </mxCell>
        <mxCell id="C3DzCFpYoBOEMf917RgJ-75" value="" style="rounded=1;whiteSpace=wrap;html=1;" vertex="1" parent="1">
          <mxGeometry x="540" y="200" width="120" height="60" as="geometry" />
        </mxCell>
        <mxCell id="C3DzCFpYoBOEMf917RgJ-76" value="Verbale" style="text;html=1;strokeColor=none;fillColor=none;align=center;verticalAlign=middle;whiteSpace=wrap;rounded=0;fontStyle=1;fontSize=26;" vertex="1" parent="1">
          <mxGeometry x="570" y="215" width="60" height="30" as="geometry" />
        </mxCell>
        <mxCell id="C3DzCFpYoBOEMf917RgJ-82" style="edgeStyle=orthogonalEdgeStyle;rounded=0;orthogonalLoop=1;jettySize=auto;html=1;entryX=1;entryY=0.5;entryDx=0;entryDy=0;strokeWidth=2;endArrow=none;endFill=0;" edge="1" parent="1" source="C3DzCFpYoBOEMf917RgJ-79" target="C3DzCFpYoBOEMf917RgJ-75">
          <mxGeometry relative="1" as="geometry" />
        </mxCell>
        <mxCell id="C3DzCFpYoBOEMf917RgJ-79" value="" style="rhombus;whiteSpace=wrap;html=1;" vertex="1" parent="1">
          <mxGeometry x="770" y="170" width="120" height="120" as="geometry" />
        </mxCell>
        <mxCell id="C3DzCFpYoBOEMf917RgJ-80" value="Associato" style="text;html=1;strokeColor=none;fillColor=none;align=center;verticalAlign=middle;whiteSpace=wrap;rounded=0;fontStyle=1;fontSize=18;" vertex="1" parent="1">
          <mxGeometry x="800" y="215" width="60" height="30" as="geometry" />
        </mxCell>
        <mxCell id="C3DzCFpYoBOEMf917RgJ-83" value="" style="rhombus;whiteSpace=wrap;html=1;" vertex="1" parent="1">
          <mxGeometry x="120" y="170" width="120" height="120" as="geometry" />
        </mxCell>
        <mxCell id="C3DzCFpYoBOEMf917RgJ-84" value="Riferito" style="text;html=1;strokeColor=none;fillColor=none;align=center;verticalAlign=middle;whiteSpace=wrap;rounded=0;fontStyle=1;fontSize=18;" vertex="1" parent="1">
          <mxGeometry x="150" y="215" width="60" height="30" as="geometry" />
        </mxCell>
        <mxCell id="C3DzCFpYoBOEMf917RgJ-87" value="(0:N)" style="text;html=1;strokeColor=none;fillColor=none;align=center;verticalAlign=middle;whiteSpace=wrap;rounded=0;strokeWidth=3;fontSize=18;" vertex="1" parent="1">
          <mxGeometry x="120" y="520" width="60" height="30" as="geometry" />
        </mxCell>
        <mxCell id="C3DzCFpYoBOEMf917RgJ-88" value="(0:N)" style="text;html=1;strokeColor=none;fillColor=none;align=center;verticalAlign=middle;whiteSpace=wrap;rounded=0;strokeWidth=3;fontSize=18;" vertex="1" parent="1">
          <mxGeometry x="480" y="190" width="60" height="30" as="geometry" />
        </mxCell>
        <mxCell id="C3DzCFpYoBOEMf917RgJ-89" value="(1:1)" style="text;html=1;strokeColor=none;fillColor=none;align=center;verticalAlign=middle;whiteSpace=wrap;rounded=0;strokeWidth=3;fontSize=18;" vertex="1" parent="1">
          <mxGeometry x="660" y="190" width="60" height="30" as="geometry" />
        </mxCell>
        <mxCell id="C3DzCFpYoBOEMf917RgJ-90" value="(0:N)" style="text;html=1;strokeColor=none;fillColor=none;align=center;verticalAlign=middle;whiteSpace=wrap;rounded=0;strokeWidth=3;fontSize=18;" vertex="1" parent="1">
          <mxGeometry x="940" y="190" width="60" height="30" as="geometry" />
        </mxCell>
        <mxCell id="C3DzCFpYoBOEMf917RgJ-91" value="(0:N)" style="text;html=1;strokeColor=none;fillColor=none;align=center;verticalAlign=middle;whiteSpace=wrap;rounded=0;strokeWidth=3;fontSize=18;" vertex="1" parent="1">
          <mxGeometry x="1130" y="190" width="60" height="30" as="geometry" />
        </mxCell>
        <mxCell id="C3DzCFpYoBOEMf917RgJ-92" value="(0:N)" style="text;html=1;strokeColor=none;fillColor=none;align=center;verticalAlign=middle;whiteSpace=wrap;rounded=0;strokeWidth=3;fontSize=18;" vertex="1" parent="1">
          <mxGeometry x="1060" y="560" width="60" height="30" as="geometry" />
        </mxCell>
        <mxCell id="C3DzCFpYoBOEMf917RgJ-93" value="(1:1)" style="text;html=1;strokeColor=none;fillColor=none;align=center;verticalAlign=middle;whiteSpace=wrap;rounded=0;strokeWidth=3;fontSize=18;" vertex="1" parent="1">
          <mxGeometry x="1060" y="270" width="60" height="30" as="geometry" />
        </mxCell>
        <mxCell id="C3DzCFpYoBOEMf917RgJ-94" value="(0:N)" style="text;html=1;strokeColor=none;fillColor=none;align=center;verticalAlign=middle;whiteSpace=wrap;rounded=0;strokeWidth=3;fontSize=18;" vertex="1" parent="1">
          <mxGeometry x="270" y="650" width="60" height="30" as="geometry" />
        </mxCell>
        <mxCell id="C3DzCFpYoBOEMf917RgJ-95" value="" style="endArrow=oval;html=1;rounded=0;exitX=0.25;exitY=0;exitDx=0;exitDy=0;startArrow=none;startFill=0;endFill=1;strokeWidth=3;endSize=10;" edge="1" parent="1">
          <mxGeometry width="50" height="50" relative="1" as="geometry">
            <mxPoint x="580" y="200" as="sourcePoint" />
            <mxPoint x="580" y="160" as="targetPoint" />
          </mxGeometry>
        </mxCell>
        <mxCell id="C3DzCFpYoBOEMf917RgJ-96" value="ID" style="text;html=1;strokeColor=none;fillColor=none;align=center;verticalAlign=middle;whiteSpace=wrap;rounded=0;strokeWidth=3;fontSize=18;" vertex="1" parent="1">
          <mxGeometry x="550" y="120" width="60" height="30" as="geometry" />
        </mxCell>
        <mxCell id="C3DzCFpYoBOEMf917RgJ-97" value="" style="endArrow=oval;html=1;rounded=1;exitX=0.25;exitY=0;exitDx=0;exitDy=0;startArrow=none;startFill=0;endFill=0;strokeWidth=3;endSize=10;" edge="1" parent="1">
          <mxGeometry width="50" height="50" relative="1" as="geometry">
            <mxPoint x="440" y="440" as="sourcePoint" />
            <mxPoint x="470" y="370" as="targetPoint" />
            <Array as="points">
              <mxPoint x="440" y="400" />
              <mxPoint x="470" y="400" />
            </Array>
          </mxGeometry>
        </mxCell>
        <mxCell id="C3DzCFpYoBOEMf917RgJ-98" value="" style="endArrow=oval;html=1;rounded=1;exitX=0.117;exitY=-0.017;exitDx=0;exitDy=0;startArrow=none;startFill=0;endFill=0;strokeWidth=3;endSize=10;exitPerimeter=0;" edge="1" parent="1">
          <mxGeometry width="50" height="50" relative="1" as="geometry">
            <mxPoint x="379" y="439" as="sourcePoint" />
            <mxPoint x="330" y="380" as="targetPoint" />
            <Array as="points">
              <mxPoint x="379" y="400" />
              <mxPoint x="330" y="400" />
            </Array>
          </mxGeometry>
        </mxCell>
        <mxCell id="C3DzCFpYoBOEMf917RgJ-99" value="Email" style="text;html=1;strokeColor=none;fillColor=none;align=center;verticalAlign=middle;whiteSpace=wrap;rounded=0;strokeWidth=3;fontSize=18;" vertex="1" parent="1">
          <mxGeometry x="300" y="340" width="60" height="30" as="geometry" />
        </mxCell>
        <mxCell id="C3DzCFpYoBOEMf917RgJ-100" value="&lt;span&gt;DataCreazione&lt;/span&gt;" style="text;html=1;strokeColor=none;fillColor=none;align=center;verticalAlign=middle;whiteSpace=wrap;rounded=0;strokeWidth=3;fontSize=18;fontStyle=0" vertex="1" parent="1">
          <mxGeometry x="620" y="90" width="60" height="30" as="geometry" />
        </mxCell>
        <mxCell id="C3DzCFpYoBOEMf917RgJ-101" value="" style="endArrow=oval;html=1;rounded=1;exitX=0.25;exitY=0;exitDx=0;exitDy=0;startArrow=none;startFill=0;endFill=0;strokeWidth=3;endSize=10;" edge="1" parent="1">
          <mxGeometry width="50" height="50" relative="1" as="geometry">
            <mxPoint x="620" y="200" as="sourcePoint" />
            <mxPoint x="650" y="130" as="targetPoint" />
            <Array as="points">
              <mxPoint x="620" y="160" />
              <mxPoint x="650" y="160" />
            </Array>
          </mxGeometry>
        </mxCell>
        <mxCell id="C3DzCFpYoBOEMf917RgJ-102" value="" style="endArrow=oval;html=1;rounded=1;exitX=0.117;exitY=-0.017;exitDx=0;exitDy=0;startArrow=none;startFill=0;endFill=0;strokeWidth=3;endSize=10;exitPerimeter=0;" edge="1" parent="1">
          <mxGeometry width="50" height="50" relative="1" as="geometry">
            <mxPoint x="559" y="199" as="sourcePoint" />
            <mxPoint x="510" y="140" as="targetPoint" />
            <Array as="points">
              <mxPoint x="559" y="160" />
              <mxPoint x="510" y="160" />
            </Array>
          </mxGeometry>
        </mxCell>
        <mxCell id="C3DzCFpYoBOEMf917RgJ-103" value="OraCreazione" style="text;html=1;strokeColor=none;fillColor=none;align=center;verticalAlign=middle;whiteSpace=wrap;rounded=0;strokeWidth=3;fontSize=18;" vertex="1" parent="1">
          <mxGeometry x="480" y="100" width="60" height="30" as="geometry" />
        </mxCell>
        <mxCell id="C3DzCFpYoBOEMf917RgJ-104" value="" style="endArrow=oval;html=1;rounded=1;exitX=0.25;exitY=1;exitDx=0;exitDy=0;startArrow=none;startFill=0;endFill=0;strokeWidth=3;endSize=10;" edge="1" parent="1">
          <mxGeometry width="50" height="50" relative="1" as="geometry">
            <mxPoint x="1013" y="260" as="sourcePoint" />
            <mxPoint x="980" y="320" as="targetPoint" />
            <Array as="points">
              <mxPoint x="1013" y="300" />
              <mxPoint x="980" y="300" />
            </Array>
          </mxGeometry>
        </mxCell>
        <mxCell id="C3DzCFpYoBOEMf917RgJ-105" value="&lt;span&gt;Data&lt;/span&gt;" style="text;html=1;strokeColor=none;fillColor=none;align=center;verticalAlign=middle;whiteSpace=wrap;rounded=0;strokeWidth=3;fontSize=18;fontStyle=0" vertex="1" parent="1">
          <mxGeometry x="950" y="330" width="60" height="30" as="geometry" />
        </mxCell>
        <mxCell id="C3DzCFpYoBOEMf917RgJ-106" value="" style="endArrow=oval;html=1;rounded=1;startArrow=none;startFill=0;endFill=1;strokeWidth=3;endSize=10;" edge="1" parent="1">
          <mxGeometry width="50" height="50" relative="1" as="geometry">
            <mxPoint x="960" y="270" as="sourcePoint" />
            <mxPoint x="1110" y="330" as="targetPoint" />
            <Array as="points" />
          </mxGeometry>
        </mxCell>
        <mxCell id="C3DzCFpYoBOEMf917RgJ-108" value="" style="endArrow=oval;html=1;rounded=0;exitX=0.25;exitY=0;exitDx=0;exitDy=0;startArrow=none;startFill=0;endFill=0;strokeWidth=3;endSize=10;" edge="1" parent="1">
          <mxGeometry width="50" height="50" relative="1" as="geometry">
            <mxPoint x="1040" y="200" as="sourcePoint" />
            <mxPoint x="1040" y="150" as="targetPoint" />
          </mxGeometry>
        </mxCell>
        <mxCell id="C3DzCFpYoBOEMf917RgJ-109" value="Ora" style="text;html=1;strokeColor=none;fillColor=none;align=center;verticalAlign=middle;whiteSpace=wrap;rounded=0;strokeWidth=3;fontSize=18;" vertex="1" parent="1">
          <mxGeometry x="1010" y="110" width="60" height="30" as="geometry" />
        </mxCell>
        <mxCell id="C3DzCFpYoBOEMf917RgJ-110" value="" style="endArrow=oval;html=1;rounded=1;exitX=0.129;exitY=0.622;exitDx=0;exitDy=0;startArrow=none;startFill=0;endFill=0;strokeWidth=3;endSize=10;exitPerimeter=0;" edge="1" parent="1" source="C3DzCFpYoBOEMf917RgJ-71">
          <mxGeometry width="50" height="50" relative="1" as="geometry">
            <mxPoint x="773" y="1010" as="sourcePoint" />
            <mxPoint x="750" y="1070" as="targetPoint" />
            <Array as="points">
              <mxPoint x="795" y="1050" />
              <mxPoint x="750" y="1050" />
            </Array>
          </mxGeometry>
        </mxCell>
        <mxCell id="C3DzCFpYoBOEMf917RgJ-111" value="&lt;span&gt;Voto&lt;/span&gt;" style="text;html=1;strokeColor=none;fillColor=none;align=center;verticalAlign=middle;whiteSpace=wrap;rounded=0;strokeWidth=3;fontSize=18;fontStyle=0" vertex="1" parent="1">
          <mxGeometry x="720" y="1080" width="60" height="30" as="geometry" />
        </mxCell>
        <mxCell id="C3DzCFpYoBOEMf917RgJ-112" value="" style="endArrow=oval;html=1;rounded=1;exitX=0.811;exitY=0.683;exitDx=0;exitDy=0;startArrow=none;startFill=0;endFill=0;strokeWidth=3;endSize=10;exitPerimeter=0;" edge="1" parent="1" source="C3DzCFpYoBOEMf917RgJ-71">
          <mxGeometry width="50" height="50" relative="1" as="geometry">
            <mxPoint x="878" y="1010" as="sourcePoint" />
            <mxPoint x="900" y="1060" as="targetPoint" />
            <Array as="points">
              <mxPoint x="878" y="1030" />
              <mxPoint x="900" y="1030" />
            </Array>
          </mxGeometry>
        </mxCell>
        <mxCell id="C3DzCFpYoBOEMf917RgJ-113" value="Stato valutazione" style="text;html=1;strokeColor=none;fillColor=none;align=center;verticalAlign=middle;whiteSpace=wrap;rounded=0;strokeWidth=3;fontSize=18;" vertex="1" parent="1">
          <mxGeometry x="820" y="1070" width="150" height="30" as="geometry" />
        </mxCell>
        <mxCell id="C3DzCFpYoBOEMf917RgJ-114" value="Descrizione &lt;br&gt;&lt;font color=&quot;#ff8000&quot;&gt;{&quot;No description&quot;}&lt;/font&gt;" style="text;html=1;strokeColor=none;fillColor=none;align=center;verticalAlign=middle;whiteSpace=wrap;rounded=0;strokeWidth=3;fontSize=18;" vertex="1" parent="1">
          <mxGeometry x="220" y="910" width="180" height="30" as="geometry" />
        </mxCell>
      </root>
    </mxGraphModel>
  </diagram>
</mxfile>
